<svg width="2485" height="422" xmlns="http://www.w3.org/2000/svg" xmlns:xlink="http://www.w3.org/1999/xlink" xml:space="preserve" overflow="hidden"><g transform="translate(-957 -1026)"><g><g><g><g><g><path d="M285.851 588.123 110.873 486.845 110.873 371.332 285.851 472.611Z" fill="#000000" fill-rule="evenodd" fill-opacity="1" transform="matrix(1.00076 0 0 1 848.352 856.877)"/><path d="M0 222.985 127.904 0 243.426 0 115.521 222.985Z" fill="#000000" fill-rule="evenodd" fill-opacity="1" transform="matrix(1.83837e-16 1 1.00076 -1.83697e-16 1181.84 1200.34)"/><path d="M555.862 287.944 308.462 430.755 110.714 316.193 358.114 173.38Z" fill="#000000" fill-rule="evenodd" fill-opacity="1" transform="matrix(1.00076 0 0 1 848.352 856.877)"/></g></g></g></g><path d="M2869.95 1236.11C2857.61 1236.11 2847.57 1240.75 2839.82 1250.01 2833.53 1257.44 2830.39 1265.91 2830.39 1275.42 2830.39 1285.04 2833.53 1293.57 2839.82 1301.01 2847.57 1310.27 2857.61 1314.9 2869.95 1314.9 2880.95 1314.9 2890.27 1311.09 2897.89 1303.48 2905.51 1295.86 2909.32 1286.51 2909.32 1275.42 2909.32 1264.45 2905.48 1255.16 2897.8 1247.54 2890.12 1239.92 2880.83 1236.11 2869.95 1236.11ZM2538.09 1236.11C2525.75 1236.11 2515.71 1240.75 2507.97 1250.01 2501.68 1257.44 2498.53 1265.91 2498.53 1275.42 2498.53 1285.04 2501.68 1293.57 2507.97 1301.01 2515.71 1310.27 2525.75 1314.9 2538.09 1314.9 2549.1 1314.9 2558.41 1311.09 2566.03 1303.48 2573.66 1295.86 2577.47 1286.51 2577.47 1275.42 2577.47 1264.45 2573.63 1255.16 2565.94 1247.54 2558.26 1239.92 2548.98 1236.11 2538.09 1236.11ZM1740.36 1236.11C1728.02 1236.11 1717.98 1240.75 1710.24 1250.01 1703.95 1257.44 1700.81 1265.91 1700.81 1275.42 1700.81 1285.04 1703.95 1293.57 1710.24 1301.01 1717.98 1310.27 1728.02 1314.9 1740.36 1314.9 1751.37 1314.9 1760.69 1311.09 1768.31 1303.48 1775.93 1295.86 1779.74 1286.51 1779.74 1275.42 1779.74 1264.45 1775.9 1255.16 1768.22 1247.54 1760.53 1239.92 1751.25 1236.11 1740.36 1236.11ZM3098.6 1235.39C3086.62 1235.39 3076.83 1240 3069.21 1249.21 3063.16 1256.61 3060.13 1265.17 3060.13 1274.87 3060.13 1285.67 3063.85 1294.92 3071.29 1302.62 3078.73 1310.32 3087.83 1314.17 3098.6 1314.17 3109.24 1314.17 3118.28 1310.32 3125.72 1302.62 3133.16 1294.92 3136.88 1285.67 3136.88 1274.87 3136.88 1264.07 3133.19 1254.8 3125.81 1247.03 3118.43 1239.27 3109.36 1235.39 3098.6 1235.39ZM3213.86 1190.99 3283.32 1190.99 3328.53 1277.6 3372.46 1190.99 3441 1190.99 3305.19 1444.27 3238.11 1444.27 3295.53 1336.74ZM2002.59 1190.99 2062.56 1190.99 2062.56 1286.7C2062.56 1297.25 2065.1 1305.01 2070.17 1309.99 2075.61 1315.33 2083.16 1317.99 2092.82 1317.99 2102.36 1317.99 2109.85 1315.33 2115.29 1309.99 2120.36 1305.01 2122.9 1297.25 2122.9 1286.7L2122.9 1190.99 2182.88 1190.99 2182.88 1298.16C2182.88 1329.58 2167.99 1350.44 2138.21 1360.75 2125.82 1365 2110.69 1367.12 2092.82 1367.12 2057.7 1367.12 2032.48 1358.51 2017.17 1341.28 2007.45 1330.37 2002.59 1315.99 2002.59 1298.16ZM2337.34 1187.35C2355.54 1187.35 2370.35 1192.26 2381.75 1202.09 2394.73 1213.25 2401.23 1229.99 2401.23 1252.31L2401.23 1359.84 2341.25 1359.84 2341.25 1274.45C2341.25 1259.55 2339.56 1249.68 2336.18 1244.83 2331.23 1237.69 2323.8 1234.11 2313.9 1234.11 2304.84 1234.11 2297.23 1237.19 2291.07 1243.34 2285.51 1248.9 2282.74 1257.58 2282.74 1269.41L2282.74 1359.84 2222.76 1359.84 2222.76 1190.99 2282.74 1190.99 2282.74 1212.28C2289.65 1204.27 2296.02 1198.63 2301.85 1195.36 2311.31 1190.02 2323.14 1187.35 2337.34 1187.35ZM3083.35 1186.26C3095.61 1186.26 3106.53 1188.74 3116.12 1193.72 3121.82 1196.75 3127.77 1201.72 3133.96 1208.64L3133.96 1190.99 3193.94 1190.99 3193.94 1348.2C3193.94 1363 3192.9 1374.95 3190.84 1384.04 3187.56 1398.6 3179.05 1411.64 3165.32 1423.17 3147.94 1437.72 3124.85 1445 3096.05 1445 3065.91 1445 3041.9 1437.05 3024.04 1421.16 3012.13 1410.61 3004.53 1399.57 3001.25 1388.05 3000.89 1386.83 3000.4 1384.29 2999.79 1380.41L3066.88 1380.41C3068.82 1385.93 3071.44 1389.89 3074.72 1392.29 3080.06 1396.26 3086.87 1398.24 3095.13 1398.24 3108.99 1398.24 3119.62 1393.34 3127.04 1383.54 3131.65 1377.38 3133.96 1368.55 3133.96 1357.06L3133.96 1341.1C3126.8 1347.65 3120.79 1352.26 3115.94 1354.93 3105.87 1360.51 3093.97 1363.3 3080.26 1363.3 3063.02 1363.3 3047.61 1358.87 3034.02 1350.02 3020.06 1340.92 3010.05 1328.49 3003.98 1312.72 2999.85 1302.04 2997.79 1290.46 2997.79 1277.96 2997.79 1250.31 3006.59 1227.8 3024.19 1210.46 3040.57 1194.32 3060.29 1186.26 3083.35 1186.26ZM2871.77 1184.8C2903.73 1184.8 2929.25 1195.05 2948.33 1215.55 2963.89 1232.29 2971.67 1252.25 2971.67 1275.42 2971.67 1298.83 2963.95 1318.9 2948.51 1335.64 2929.8 1356.02 2903.61 1366.21 2869.95 1366.21 2836.16 1366.21 2809.91 1356.02 2791.19 1335.64 2775.76 1318.9 2768.04 1298.34 2768.04 1273.96 2768.04 1252 2775.82 1232.54 2791.38 1215.55 2810.21 1195.05 2837.01 1184.8 2871.77 1184.8ZM2539.91 1184.8C2571.88 1184.8 2597.4 1195.05 2616.48 1215.55 2632.03 1232.29 2639.81 1252.25 2639.81 1275.42 2639.81 1298.83 2632.09 1318.9 2616.66 1335.64 2597.94 1356.02 2571.75 1366.21 2538.09 1366.21 2504.31 1366.21 2478.06 1356.02 2459.34 1335.64 2443.91 1318.9 2436.19 1298.34 2436.19 1273.96 2436.19 1252 2443.97 1232.54 2459.52 1215.55 2478.36 1195.05 2505.16 1184.8 2539.91 1184.8ZM1742.19 1184.8C1774.15 1184.8 1799.67 1195.05 1818.75 1215.55 1834.3 1232.29 1842.08 1252.25 1842.08 1275.42 1842.08 1298.83 1834.37 1318.9 1818.93 1335.64 1800.22 1356.02 1774.03 1366.21 1740.36 1366.21 1706.58 1366.21 1680.33 1356.02 1661.61 1335.64 1646.18 1318.9 1638.46 1298.34 1638.46 1273.96 1638.46 1252 1646.24 1232.54 1661.79 1215.55 1680.63 1195.05 1707.43 1184.8 1742.19 1184.8ZM1527.69 1140.22 1587.66 1140.22 1587.66 1190.99 1621.75 1190.99 1621.75 1239.93 1587.66 1239.93 1587.66 1359.84 1527.69 1359.84 1527.69 1239.93 1508 1239.93 1508 1190.99 1527.69 1190.99ZM2672.68 1086.55 2732.65 1086.55 2732.65 1359.84 2672.68 1359.84ZM1955.34 1086C1964.09 1086 1972.9 1088.05 1981.78 1092.16L1981.78 1144.04C1973.67 1139.56 1966.71 1137.31 1960.9 1137.31 1952.79 1137.31 1946.87 1140.42 1943.11 1146.62 1940.94 1150.15 1939.85 1158.85 1939.85 1172.73L1939.85 1190.99 1981.78 1190.99 1981.78 1240.12 1939.85 1240.12 1939.85 1359.84 1879.87 1359.84 1879.87 1240.12 1858.55 1240.12 1858.55 1190.99 1879.87 1190.99 1879.87 1168.61C1879.87 1143.74 1886.19 1124.57 1898.83 1111.11 1914.51 1094.37 1933.35 1086 1955.34 1086Z" fill="#000000" fill-rule="evenodd" fill-opacity="1"/></g></g></svg>